<svg width="40" height="40" viewBox="0 0 40 40" fill="none" xmlns="http://www.w3.org/2000/svg">
<rect width="40" height="40" rx="5" fill="#1769FF"/>
<path d="M14.1296 10.9375C14.992 10.9375 15.7792 11.0143 16.4912 11.1663C17.2032 11.3183 17.8112 11.5679 18.3184 11.9151C18.8256 12.2623 19.2192 12.7231 19.4992 13.2991C19.7792 13.8751 19.9184 14.5855 19.9184 15.4319C19.9184 16.3455 19.7104 17.1071 19.296 17.7167C18.8816 18.3263 18.2672 18.8255 17.456 19.2143C18.5728 19.5359 19.4064 20.0991 19.9568 20.9023C20.5072 21.7055 20.7824 22.6751 20.7824 23.8095C20.7824 24.7231 20.6048 25.5151 20.2496 26.1839C19.8944 26.8527 19.416 27.3983 18.8144 27.8207C18.2128 28.2447 17.528 28.5567 16.7584 28.7599C15.984 28.9631 15.1856 29.0655 14.3856 29.0639H5.60001V10.9375H14.1296ZM13.6224 18.2735C14.3328 18.2735 14.9168 18.1039 15.3744 17.7663C15.832 17.4271 16.0608 16.8783 16.0592 16.1167C16.0592 15.6943 15.9824 15.3471 15.8304 15.0767C15.6784 14.8063 15.4752 14.5935 15.2208 14.4415C14.9664 14.2895 14.6752 14.1839 14.3456 14.1247C14.0064 14.0655 13.6624 14.0351 13.3168 14.0367H9.58721V18.2767L13.6224 18.2735ZM13.8512 25.9647C14.2272 25.9663 14.6016 25.9279 14.968 25.8511C15.3232 25.7743 15.6368 25.6479 15.9072 25.4703C16.1776 25.2927 16.3936 25.0511 16.5552 24.7471C16.7152 24.4431 16.7968 24.0527 16.7968 23.5791C16.7968 22.6495 16.5344 21.9839 16.0096 21.5871C15.4848 21.1887 14.7904 20.9903 13.928 20.9903H9.58721V25.9663L13.8512 25.9647ZM25.7968 25.5839C26.3376 26.1087 27.1168 26.3711 28.1328 26.3711C28.8608 26.3711 29.4864 26.1887 30.0112 25.8255C30.536 25.4623 30.8576 25.0767 30.976 24.6703H34.1488C33.6416 26.2447 32.8624 27.3695 31.8128 28.0463C30.7632 28.7231 29.4944 29.0623 28.0048 29.0623C26.9728 29.0623 26.0416 28.8975 25.2128 28.5679C24.384 28.2383 23.6816 27.7679 23.1056 27.1583C22.5296 26.5487 22.0848 25.8223 21.7728 24.9759C21.4608 24.1295 21.304 23.1983 21.304 22.1839C21.304 21.2031 21.464 20.2895 21.7856 19.4431C22.1072 18.5967 22.5648 17.8655 23.1568 17.2479C23.7488 16.6303 24.456 16.1439 25.2768 15.7887C26.0976 15.4335 27.008 15.2559 28.0064 15.2559C29.1232 15.2559 30.096 15.4719 30.9264 15.9039C31.7552 16.3359 32.4368 16.9151 32.9696 17.6431C33.5024 18.3711 33.888 19.1999 34.1248 20.1311C34.3616 21.0623 34.4464 22.0351 34.3792 23.0511H24.9104C24.96 24.2143 25.256 25.0607 25.7968 25.5839ZM29.872 18.6799C29.44 18.2063 28.784 17.9695 27.904 17.9695C27.328 17.9695 26.8496 18.0671 26.4704 18.2607C26.0896 18.4559 25.7856 18.6959 25.5568 18.9839C25.328 19.2719 25.168 19.5759 25.0752 19.8975C24.9824 20.2191 24.9264 20.5071 24.9104 20.7599H30.7744C30.6032 19.8479 30.3024 19.1535 29.872 18.6799ZM24.2928 11.8575H31.6192V13.8895H24.2928V11.8575Z" fill="white"/>
</svg>
