<svg width="40" height="40" viewBox="0 0 40 40" fill="none" xmlns="http://www.w3.org/2000/svg">
<rect width="40" height="40" rx="8" fill="white"/>
<path d="M15.4286 35.4288C18.2675 35.4288 20.5715 33.1248 20.5715 30.2859V25.1431H15.4286C12.5898 25.1431 10.2857 27.4471 10.2857 30.2859C10.2857 33.1248 12.5898 35.4288 15.4286 35.4288Z" fill="#0ACF83"/>
<path d="M10.2857 20.0001C10.2857 17.1612 12.5898 14.8572 15.4286 14.8572H20.5715V25.1428H15.4286C12.5898 25.1429 10.2857 22.8389 10.2857 20.0001Z" fill="#A259FF"/>
<path d="M10.2857 9.71441C10.2857 6.87556 12.5898 4.57153 15.4286 4.57153H20.5715V14.8572H15.4286C12.5898 14.8572 10.2857 12.5533 10.2857 9.71441Z" fill="#F24E1E"/>
<path d="M20.5713 4.57153H25.7142C28.5531 4.57153 30.8571 6.87556 30.8571 9.71441C30.8571 12.5533 28.5531 14.8572 25.7142 14.8572H20.5713V4.57153Z" fill="#FF7262"/>
<path d="M30.8571 20.0001C30.8571 22.8389 28.5531 25.1429 25.7142 25.1429C22.8753 25.1429 20.5713 22.8389 20.5713 20.0001C20.5713 17.1612 22.8753 14.8572 25.7142 14.8572C28.5531 14.8572 30.8571 17.1612 30.8571 20.0001Z" fill="#1ABCFE"/>
</svg>
